<mxfile host="app.diagrams.net" modified="2020-10-26T02:21:03.999Z" agent="5.0 (Windows NT 10.0; Win64; x64) AppleWebKit/537.36 (KHTML, like Gecko) Chrome/84.0.4147.135 Safari/537.36" etag="LzI9uxxIzGhHMOlPxSIm" version="13.8.1" type="github">
  <diagram name="Page-1" id="13e1069c-82ec-6db2-03f1-153e76fe0fe0">
    <mxGraphModel dx="1422" dy="762" grid="1" gridSize="10" guides="1" tooltips="1" connect="1" arrows="1" fold="1" page="1" pageScale="1" pageWidth="1100" pageHeight="850" background="#ffffff" math="0" shadow="0">
      <root>
        <mxCell id="0" />
        <mxCell id="1" parent="0" />
        <mxCell id="xcOxGzWUe26joJ2caHbM-23" value="正式环境更新前资源检查过程" style="shape=delay;whiteSpace=wrap;html=1;rounded=0;sketch=0;strokeColor=#E07A5F;fillColor=#F2CC8F;fontColor=#393C56;" vertex="1" parent="1">
          <mxGeometry x="200" y="40" width="160" height="40" as="geometry" />
        </mxCell>
        <mxCell id="xcOxGzWUe26joJ2caHbM-73" style="edgeStyle=orthogonalEdgeStyle;rounded=0;orthogonalLoop=1;jettySize=auto;html=1;" edge="1" parent="1" source="xcOxGzWUe26joJ2caHbM-25">
          <mxGeometry relative="1" as="geometry">
            <mxPoint x="370" y="640" as="targetPoint" />
            <Array as="points">
              <mxPoint x="370" y="350" />
              <mxPoint x="370" y="350" />
            </Array>
          </mxGeometry>
        </mxCell>
        <mxCell id="xcOxGzWUe26joJ2caHbM-25" value="tapd" style="rounded=0;whiteSpace=wrap;html=1;sketch=0;strokeColor=#E07A5F;fillColor=#F2CC8F;fontColor=#393C56;" vertex="1" parent="1">
          <mxGeometry x="320" y="97.5" width="100" height="40" as="geometry" />
        </mxCell>
        <mxCell id="xcOxGzWUe26joJ2caHbM-72" style="edgeStyle=orthogonalEdgeStyle;rounded=0;orthogonalLoop=1;jettySize=auto;html=1;" edge="1" parent="1" source="xcOxGzWUe26joJ2caHbM-27">
          <mxGeometry relative="1" as="geometry">
            <mxPoint x="670" y="610" as="targetPoint" />
          </mxGeometry>
        </mxCell>
        <mxCell id="xcOxGzWUe26joJ2caHbM-27" value="发布机" style="rounded=0;whiteSpace=wrap;html=1;sketch=0;strokeColor=#E07A5F;fillColor=#F2CC8F;fontColor=#393C56;" vertex="1" parent="1">
          <mxGeometry x="600" y="102.5" width="140" height="35" as="geometry" />
        </mxCell>
        <mxCell id="xcOxGzWUe26joJ2caHbM-29" style="edgeStyle=orthogonalEdgeStyle;curved=0;rounded=1;sketch=0;orthogonalLoop=1;jettySize=auto;html=1;strokeColor=#E07A5F;fillColor=#F2CC8F;fontColor=#393C56;labelBackgroundColor=#F4F1DE;" edge="1" parent="1">
          <mxGeometry relative="1" as="geometry">
            <mxPoint x="670" y="310" as="sourcePoint" />
            <Array as="points">
              <mxPoint x="930" y="310" />
              <mxPoint x="930" y="340" />
            </Array>
            <mxPoint x="670" y="340" as="targetPoint" />
          </mxGeometry>
        </mxCell>
        <mxCell id="xcOxGzWUe26joJ2caHbM-30" value="&lt;span style=&quot;color: rgb(0 , 0 , 0) ; font-size: 12px ; background-color: rgb(248 , 249 , 250)&quot;&gt;检查etcd里的预发布版本信息和proxy&amp;nbsp;&lt;/span&gt;&lt;span style=&quot;color: rgb(0 , 0 , 0) ; font-size: 12px ; background-color: rgb(248 , 249 , 250)&quot;&gt;storage&lt;br&gt;预发布资源版本信息是否一致&lt;br&gt;确保预发布同步后已重启&lt;br&gt;&lt;/span&gt;" style="edgeLabel;html=1;align=center;verticalAlign=middle;resizable=0;points=[];fontColor=#393C56;labelBackgroundColor=#F4F1DE;" vertex="1" connectable="0" parent="xcOxGzWUe26joJ2caHbM-29">
          <mxGeometry x="0.1427" y="-4" relative="1" as="geometry">
            <mxPoint x="-106" y="-16" as="offset" />
          </mxGeometry>
        </mxCell>
        <mxCell id="xcOxGzWUe26joJ2caHbM-31" value="" style="endArrow=classic;html=1;strokeColor=#E07A5F;fillColor=#F2CC8F;fontColor=#393C56;labelBackgroundColor=#F4F1DE;" edge="1" parent="1">
          <mxGeometry width="50" height="50" relative="1" as="geometry">
            <mxPoint x="670" y="270" as="sourcePoint" />
            <mxPoint x="670" y="280" as="targetPoint" />
            <Array as="points">
              <mxPoint x="1475" y="280" />
              <mxPoint x="1530" y="280" />
            </Array>
          </mxGeometry>
        </mxCell>
        <mxCell id="xcOxGzWUe26joJ2caHbM-32" value="&lt;span style=&quot;font-size: 12px ; background-color: rgb(248 , 249 , 250)&quot;&gt;从etcd获得云服务器预发布版本信息&lt;/span&gt;" style="edgeLabel;html=1;align=center;verticalAlign=middle;resizable=0;points=[];fontColor=#393C56;labelBackgroundColor=#F4F1DE;" vertex="1" connectable="0" parent="xcOxGzWUe26joJ2caHbM-31">
          <mxGeometry x="-0.4906" y="-1" relative="1" as="geometry">
            <mxPoint x="-89.97" y="-13.63" as="offset" />
          </mxGeometry>
        </mxCell>
        <mxCell id="xcOxGzWUe26joJ2caHbM-33" style="edgeStyle=orthogonalEdgeStyle;curved=0;rounded=1;sketch=0;orthogonalLoop=1;jettySize=auto;html=1;strokeColor=#E07A5F;fillColor=#F2CC8F;fontColor=#393C56;labelBackgroundColor=#F4F1DE;" edge="1" parent="1">
          <mxGeometry relative="1" as="geometry">
            <mxPoint x="670" y="170" as="sourcePoint" />
            <Array as="points">
              <mxPoint x="370" y="170" />
              <mxPoint x="370" y="180" />
            </Array>
            <mxPoint x="670" y="180" as="targetPoint" />
          </mxGeometry>
        </mxCell>
        <mxCell id="xcOxGzWUe26joJ2caHbM-34" value="&lt;span style=&quot;font-family: &amp;#34;helvetica&amp;#34; ; font-size: 12px ; background-color: rgb(248 , 249 , 250)&quot;&gt;.从tapd获得预发布资源版本TpreV&lt;/span&gt;" style="edgeLabel;html=1;align=center;verticalAlign=middle;resizable=0;points=[];fontColor=#393C56;labelBackgroundColor=#F4F1DE;" vertex="1" connectable="0" parent="xcOxGzWUe26joJ2caHbM-33">
          <mxGeometry x="0.1427" y="-4" relative="1" as="geometry">
            <mxPoint x="99" y="-24" as="offset" />
          </mxGeometry>
        </mxCell>
        <mxCell id="xcOxGzWUe26joJ2caHbM-35" value="" style="endArrow=classic;html=1;strokeColor=#E07A5F;fillColor=#F2CC8F;fontColor=#393C56;labelBackgroundColor=#F4F1DE;" edge="1" parent="1">
          <mxGeometry width="50" height="50" relative="1" as="geometry">
            <mxPoint x="670" y="415" as="sourcePoint" />
            <mxPoint x="670" y="450" as="targetPoint" />
            <Array as="points">
              <mxPoint x="1520" y="425" />
              <mxPoint x="1530" y="425" />
            </Array>
          </mxGeometry>
        </mxCell>
        <mxCell id="xcOxGzWUe26joJ2caHbM-36" value="&lt;span style=&quot;font-size: 12px ; background-color: rgb(248 , 249 , 250)&quot;&gt;从etcd获得云服务器正式环境版本信息&lt;/span&gt;" style="edgeLabel;html=1;align=center;verticalAlign=middle;resizable=0;points=[];fontColor=#393C56;labelBackgroundColor=#F4F1DE;" vertex="1" connectable="0" parent="xcOxGzWUe26joJ2caHbM-35">
          <mxGeometry x="-0.4906" y="-1" relative="1" as="geometry">
            <mxPoint x="-164.93" y="3.8100000000000005" as="offset" />
          </mxGeometry>
        </mxCell>
        <mxCell id="xcOxGzWUe26joJ2caHbM-37" style="edgeStyle=orthogonalEdgeStyle;curved=0;rounded=1;sketch=0;orthogonalLoop=1;jettySize=auto;html=1;strokeColor=#E07A5F;fillColor=#F2CC8F;fontColor=#393C56;labelBackgroundColor=#F4F1DE;" edge="1" parent="1">
          <mxGeometry relative="1" as="geometry">
            <mxPoint x="670" y="470" as="sourcePoint" />
            <Array as="points">
              <mxPoint x="990" y="470" />
              <mxPoint x="990" y="520" />
            </Array>
            <mxPoint x="670" y="520" as="targetPoint" />
          </mxGeometry>
        </mxCell>
        <mxCell id="xcOxGzWUe26joJ2caHbM-38" value="&lt;span style=&quot;background-color: rgb(248 , 249 , 250)&quot;&gt;检查etcd里正式环境版本信息和proxy 机器storage中版本是否相等&lt;/span&gt;&lt;br&gt;&lt;span style=&quot;background-color: rgb(248 , 249 , 250)&quot;&gt;确保预发布和线上资源不一致&lt;/span&gt;&lt;br&gt;&lt;span style=&quot;background-color: rgb(248 , 249 , 250)&quot;&gt;灰度发布流程需要额外考虑&lt;/span&gt;&lt;span style=&quot;color: rgb(0 , 0 , 0) ; font-size: 12px ; background-color: rgb(248 , 249 , 250)&quot;&gt;&lt;br&gt;&lt;/span&gt;" style="edgeLabel;html=1;align=center;verticalAlign=middle;resizable=0;points=[];fontColor=#393C56;labelBackgroundColor=#F4F1DE;" vertex="1" connectable="0" parent="xcOxGzWUe26joJ2caHbM-37">
          <mxGeometry x="0.1427" y="-4" relative="1" as="geometry">
            <mxPoint x="-106" y="-26" as="offset" />
          </mxGeometry>
        </mxCell>
        <mxCell id="xcOxGzWUe26joJ2caHbM-71" style="edgeStyle=orthogonalEdgeStyle;rounded=0;orthogonalLoop=1;jettySize=auto;html=1;dashed=1;fillColor=#f8cecc;strokeColor=#b85450;" edge="1" parent="1" source="xcOxGzWUe26joJ2caHbM-40">
          <mxGeometry relative="1" as="geometry">
            <mxPoint x="1525" y="630" as="targetPoint" />
          </mxGeometry>
        </mxCell>
        <mxCell id="xcOxGzWUe26joJ2caHbM-40" value="etcd" style="shape=cylinder3;whiteSpace=wrap;html=1;boundedLbl=1;backgroundOutline=1;size=15;rounded=0;sketch=0;strokeColor=#E07A5F;fillColor=#F2CC8F;fontColor=#393C56;" vertex="1" parent="1">
          <mxGeometry x="1490" y="70" width="70" height="80" as="geometry" />
        </mxCell>
        <mxCell id="xcOxGzWUe26joJ2caHbM-44" style="edgeStyle=orthogonalEdgeStyle;rounded=0;orthogonalLoop=1;jettySize=auto;html=1;exitX=0.5;exitY=1;exitDx=0;exitDy=0;dashed=1;labelBackgroundColor=#F4F1DE;strokeColor=#E07A5F;fontColor=#393C56;" edge="1" parent="1" source="xcOxGzWUe26joJ2caHbM-25" target="xcOxGzWUe26joJ2caHbM-25">
          <mxGeometry relative="1" as="geometry" />
        </mxCell>
        <mxCell id="xcOxGzWUe26joJ2caHbM-62" style="edgeStyle=orthogonalEdgeStyle;curved=0;rounded=1;sketch=0;orthogonalLoop=1;jettySize=auto;html=1;strokeColor=#E07A5F;fillColor=#F2CC8F;fontColor=#393C56;labelBackgroundColor=#F4F1DE;" edge="1" parent="1">
          <mxGeometry relative="1" as="geometry">
            <mxPoint x="670" y="240" as="sourcePoint" />
            <Array as="points">
              <mxPoint x="540" y="240" />
              <mxPoint x="540" y="250" />
            </Array>
            <mxPoint x="670" y="250" as="targetPoint" />
          </mxGeometry>
        </mxCell>
        <mxCell id="xcOxGzWUe26joJ2caHbM-63" value="&lt;span style=&quot;font-family: &amp;#34;helvetica&amp;#34; ; font-size: 12px ; background-color: rgb(248 , 249 , 250)&quot;&gt;.&lt;/span&gt;&lt;span style=&quot;color: rgb(0 , 0 , 0) ; font-size: 12px ; background-color: rgb(248 , 249 , 250)&quot;&gt;检查TpreV和ApreV是否一致&lt;/span&gt;" style="edgeLabel;html=1;align=center;verticalAlign=middle;resizable=0;points=[];fontColor=#393C56;labelBackgroundColor=#F4F1DE;" vertex="1" connectable="0" parent="xcOxGzWUe26joJ2caHbM-62">
          <mxGeometry x="0.1427" y="-4" relative="1" as="geometry">
            <mxPoint x="46" y="-24" as="offset" />
          </mxGeometry>
        </mxCell>
        <mxCell id="xcOxGzWUe26joJ2caHbM-66" style="edgeStyle=orthogonalEdgeStyle;rounded=0;orthogonalLoop=1;jettySize=auto;html=1;" edge="1" parent="1" source="xcOxGzWUe26joJ2caHbM-64">
          <mxGeometry relative="1" as="geometry">
            <mxPoint x="820" y="610" as="targetPoint" />
          </mxGeometry>
        </mxCell>
        <mxCell id="xcOxGzWUe26joJ2caHbM-64" value="&lt;span&gt;proxy机器&lt;/span&gt;&lt;br style=&quot;padding: 0px ; margin: 0px&quot;&gt;&lt;span&gt;/data/storage/pre/version&lt;/span&gt;" style="rounded=0;whiteSpace=wrap;html=1;sketch=0;strokeColor=#E07A5F;fillColor=#F2CC8F;fontColor=#393C56;" vertex="1" parent="1">
          <mxGeometry x="750" y="102.5" width="140" height="35" as="geometry" />
        </mxCell>
        <mxCell id="xcOxGzWUe26joJ2caHbM-77" style="edgeStyle=orthogonalEdgeStyle;curved=0;rounded=1;sketch=0;orthogonalLoop=1;jettySize=auto;html=1;strokeColor=#E07A5F;fillColor=#F2CC8F;fontColor=#393C56;labelBackgroundColor=#F4F1DE;" edge="1" parent="1">
          <mxGeometry relative="1" as="geometry">
            <mxPoint x="670" y="200" as="sourcePoint" />
            <Array as="points">
              <mxPoint x="820" y="200" />
              <mxPoint x="820" y="210" />
            </Array>
            <mxPoint x="670" y="210" as="targetPoint" />
          </mxGeometry>
        </mxCell>
        <mxCell id="xcOxGzWUe26joJ2caHbM-78" value="&lt;font face=&quot;helvetica&quot;&gt;&lt;span style=&quot;background-color: rgb(248 , 249 , 250)&quot;&gt;ssh 获取 ApreV&lt;/span&gt;&lt;/font&gt;" style="edgeLabel;html=1;align=center;verticalAlign=middle;resizable=0;points=[];fontColor=#393C56;labelBackgroundColor=#F4F1DE;" vertex="1" connectable="0" parent="xcOxGzWUe26joJ2caHbM-77">
          <mxGeometry x="0.1427" y="-4" relative="1" as="geometry">
            <mxPoint x="-43" y="-16" as="offset" />
          </mxGeometry>
        </mxCell>
      </root>
    </mxGraphModel>
  </diagram>
</mxfile>
